<?xml version="1.0" encoding="utf-8"?><svg viewBox="0 0 20 20" xmlns="http://www.w3.org/2000/svg" xmlns:xlink="http://www.w3.org/1999/xlink"><style>:root>svg{display:none}:root>svg:target{display:block}</style><svg fill="currentColor" viewBox="0 0 6 10" id="arrow" xmlns="http://www.w3.org/2000/svg"><path d="M5.715 4.61L1.265.16A.543.543 0 00.878 0a.543.543 0 00-.386.16L.164.487a.548.548 0 000 .774L3.9 4.998.16 8.739a.543.543 0 00-.16.387c0 .146.057.284.16.387l.327.327c.103.103.24.16.387.16a.543.543 0 00.387-.16l4.454-4.454a.544.544 0 00.16-.388.544.544 0 00-.16-.388z"/></svg><svg fill="currentColor" viewBox="0 0 20 20" id="star" xmlns="http://www.w3.org/2000/svg"><path d="M19.948 7.557a1.072 1.072 0 00-.915-.762l-5.773-.547L10.978.674A1.063 1.063 0 0010 0c-.427 0-.81.264-.977.674L6.74 6.248l-5.774.547c-.424.04-.782.34-.915.762-.131.422-.01.886.31 1.179l4.365 3.993-1.287 5.914c-.094.435.067.885.413 1.146a1.029 1.029 0 001.169.054L10 16.736l4.977 3.107c.366.227.825.206 1.17-.054.346-.261.507-.71.413-1.146l-1.287-5.914 4.365-3.993c.32-.293.441-.756.31-1.18z"/></svg></svg>